<svg width="14" height="18" viewBox="0 0 14 18" fill="none" xmlns="http://www.w3.org/2000/svg">
<path d="M11.1666 6.49993H4.49992V4.83327C4.4987 4.33842 4.64437 3.85435 4.91847 3.44235C5.19257 3.03036 5.58277 2.70897 6.03965 2.5189C6.49654 2.32883 6.99955 2.27862 7.48499 2.37464C7.97043 2.47065 8.41646 2.70857 8.76659 3.05827C9.07987 3.37832 9.30396 3.77479 9.41658 4.20827C9.44394 4.31442 9.49194 4.41414 9.55784 4.50174C9.62374 4.58935 9.70625 4.66311 9.80065 4.71883C9.89506 4.77454 9.99952 4.81112 10.1081 4.82646C10.2166 4.84181 10.3271 4.83563 10.4333 4.80827C10.5394 4.78091 10.6391 4.73291 10.7267 4.66701C10.8143 4.60111 10.8881 4.5186 10.9438 4.4242C10.9995 4.32979 11.0361 4.22534 11.0514 4.11679C11.0668 4.00825 11.0606 3.89775 11.0333 3.7916C10.8434 3.0706 10.4669 2.41238 9.94158 1.88327C9.3584 1.3019 8.61603 0.90638 7.80822 0.746636C7.0004 0.586892 6.16336 0.670092 5.4028 0.98573C4.64224 1.30137 3.99225 1.83529 3.53492 2.52008C3.07759 3.20486 2.83343 4.00981 2.83325 4.83327V6.49993C2.17021 6.49993 1.53433 6.76333 1.06549 7.23217C0.596644 7.70101 0.333252 8.33689 0.333252 8.99993V14.8333C0.333252 15.4963 0.596644 16.1322 1.06549 16.601C1.53433 17.0699 2.17021 17.3333 2.83325 17.3333H11.1666C11.8296 17.3333 12.4655 17.0699 12.9344 16.601C13.4032 16.1322 13.6666 15.4963 13.6666 14.8333V8.99993C13.6666 8.33689 13.4032 7.70101 12.9344 7.23217C12.4655 6.76333 11.8296 6.49993 11.1666 6.49993ZM11.9999 14.8333C11.9999 15.0543 11.9121 15.2662 11.7558 15.4225C11.5996 15.5788 11.3876 15.6666 11.1666 15.6666H2.83325C2.61224 15.6666 2.40028 15.5788 2.244 15.4225C2.08772 15.2662 1.99992 15.0543 1.99992 14.8333V8.99993C1.99992 8.77892 2.08772 8.56696 2.244 8.41068C2.40028 8.2544 2.61224 8.1666 2.83325 8.1666H11.1666C11.3876 8.1666 11.5996 8.2544 11.7558 8.41068C11.9121 8.56696 11.9999 8.77892 11.9999 8.99993V14.8333Z" fill="white"/>
</svg>
